<svg xmlns="http://www.w3.org/2000/svg" width="24" height="24" fill="none" viewBox="0 0 24 24"><g clip-path="url(#clip0_12_1961)"><path stroke="#D99000" stroke-linecap="round" stroke-linejoin="round" stroke-width="1.5" d="M15 17.25V21.75C15 22.5784 14.3284 23.25 13.5 23.25H10.5C9.67157 23.25 9 22.5784 9 21.75V17.25"/><path stroke="#D99000" stroke-linecap="round" stroke-linejoin="round" stroke-width="1.5" d="M9 20.25H15"/><path stroke="#D99000" stroke-linecap="round" stroke-linejoin="round" stroke-width="1.5" d="M12 0.75V2.25"/><path stroke="#D99000" stroke-linecap="round" stroke-linejoin="round" stroke-width="1.5" d="M1.5 11.25H3"/><path stroke="#D99000" stroke-linecap="round" stroke-linejoin="round" stroke-width="1.5" d="M3.75 3.75L4.85 4.807"/><path stroke="#D99000" stroke-linecap="round" stroke-linejoin="round" stroke-width="1.5" d="M22.5 11.25H21"/><path stroke="#D99000" stroke-linecap="round" stroke-linejoin="round" stroke-width="1.5" d="M20.2499 3.75L19.1499 4.807"/><path fill-rule="evenodd" stroke="#D99000" stroke-linecap="round" stroke-linejoin="round" stroke-width="1.5" d="M8.91505 17.25H15.0851C17.359 16.1213 18.784 13.7884 18.7501 11.25C18.6844 7.54961 15.7004 4.56565 12.0001 4.5C8.29814 4.56572 5.31357 7.55205 5.25005 11.254C5.21767 13.791 6.64244 16.1219 8.91505 17.25V17.25Z" clip-rule="evenodd"/></g><defs><clipPath id="clip0_12_1961"><rect width="24" height="24" fill="#fff"/></clipPath></defs></svg>