<svg xmlns="http://www.w3.org/2000/svg" width="32" height="32" fill="none" viewBox="0 0 32 32"><path fill-rule="evenodd" stroke="#4778FF" stroke-linecap="round" stroke-linejoin="round" stroke-width="2" d="M9.25 26.5C11.7353 26.5 13.75 24.4853 13.75 22C13.75 19.5147 11.7353 17.5 9.25 17.5C6.76472 17.5 4.75 19.5147 4.75 22C4.75 24.4853 6.76472 26.5 9.25 26.5Z" clip-rule="evenodd"/><path stroke="#4778FF" stroke-linecap="round" stroke-linejoin="round" stroke-width="2" d="M13.75 22V8.125C13.7519 6.81027 12.7809 5.6969 11.4782 5.52003C10.1754 5.34316 8.94269 6.15734 8.59401 7.425L4.91101 20.805"/><path fill-rule="evenodd" stroke="#4778FF" stroke-linecap="round" stroke-linejoin="round" stroke-width="2" d="M22.75 26.5C25.2353 26.5 27.25 24.4853 27.25 22C27.25 19.5147 25.2353 17.5 22.75 17.5C20.2647 17.5 18.25 19.5147 18.25 22C18.25 24.4853 20.2647 26.5 22.75 26.5Z" clip-rule="evenodd"/><path stroke="#4778FF" stroke-linecap="round" stroke-linejoin="round" stroke-width="2" d="M18.25 22V8.125C18.2481 6.81027 19.2191 5.6969 20.5219 5.52003C21.8246 5.34316 23.0573 6.15734 23.406 7.425L27.089 20.802"/><path fill-rule="evenodd" stroke="#4778FF" stroke-linecap="round" stroke-linejoin="round" stroke-width="2" d="M13.75 13H18.25V16H13.75V13Z" clip-rule="evenodd"/></svg>